KRSPY-parametric-NarrowThinMaxGrade.ufo
<glyph name="two" format="2">
  <advance width="209.8948948948949"/>
  <unicode hex="0032"/>
  <outline>
    <contour>
      <point x="16.234234234234236" y="0.0" type="line"/>
      <point x="194.6136136136136" y="0.0" type="line" identifier="pzdvPTirLJ"/>
      <point x="194.6136136136136" y="268.8868868868869" type="line" identifier="91SxUS0iwG"/>
      <point x="151.96496496496496" y="268.8868868868869" type="line" identifier="fP7EN0pUcl"/>
      <point x="151.96496496496496" y="50.34834834834835" type="line" identifier="eb458Bdvng"/>
      <point x="58.88288288288288" y="50.34834834834835" type="line"/>
      <point x="58.88288288288288" y="262.4804804804805" type="line" identifier="9fjc25rkUx"/>
      <point x="190.46146146146145" y="1244.1561561561562" type="line" identifier="yyb1NCCI5w"/>
      <point x="190.46146146146145" y="1600.0" type="line" identifier="5FogYRSgkk"/>
      <point x="19.28128128128128" y="1600.0" type="line" identifier="svlFvrau4c"/>
      <point x="19.28128128128128" y="1318.7887887887887" type="line" identifier="LQ9fBsTy9K"/>
      <point x="61.92992992992993" y="1318.7887887887887" type="line" identifier="jS6EyIAKtm"/>
      <point x="61.92992992992993" y="1549.6516516516517" type="line"/>
      <point x="147.8128128128128" y="1549.6516516516517" type="line" identifier="N6CMAjhNlU"/>
      <point x="147.8128128128128" y="1245.1561561561562" type="line" identifier="yK1d5IcluK"/>
      <point x="16.234234234234236" y="264.4804804804805" type="line" identifier="teVKnpBcVb"/>
    </contour>
  </outline>
</glyph>
<glyph name="three" format="2">
  <advance width="218.98898898898898"/>
  <unicode hex="0033"/>
  <outline>
    <contour>
      <point x="21.28128128128128" y="0.0" type="line" identifier="O9abUc1nmN"/>
      <point x="198.7077077077077" y="0.0" type="line" identifier="kMJYMTfXCq"/>
      <point x="198.7077077077077" y="820.7207207207207" type="line" identifier="su2XmdS8e8"/>
      <point x="163.54454454454455" y="820.7207207207207" type="line" identifier="JQaOzDQqlF"/>
      <point x="163.54454454454455" y="823.5465465465466" type="line"/>
      <point x="188.26126126126127" y="907.1981981981982" type="line" identifier="S91TzLL02W"/>
      <point x="188.26126126126127" y="1600.0" type="line" identifier="xg8x2Ki40p"/>
      <point x="23.32832832832833" y="1600.0" type="line" identifier="pE1XSRiy68"/>
      <point x="23.32832832832833" y="1381.6006006006005" type="line" identifier="5lNstGRcSF"/>
      <point x="65.97697697697697" y="1381.6006006006005" type="line" identifier="AcE5xKDZfE"/>
      <point x="65.97697697697697" y="1548.6006006006005" type="line" identifier="7ogBYufWpl"/>
      <point x="145.61261261261262" y="1548.6006006006005" type="line" identifier="RHLvSX2Jv6"/>
      <point x="145.61261261261262" y="907.1981981981982" type="line" identifier="YUjTrmoWd9"/>
      <point x="121.27227227227228" y="823.5935935935936" type="line"/>
      <point x="121.27227227227228" y="820.7207207207207" type="line" identifier="iic1IBkDqp"/>
      <point x="37.127127127127125" y="820.7207207207207" type="line" identifier="lRLJEhXMlO"/>
      <point x="37.127127127127125" y="789.2912912912913" type="line" identifier="8aKgEELrVU"/>
      <point x="156.05905905905905" y="789.2912912912913" type="line" identifier="Dm8zjmbhNr"/>
      <point x="156.05905905905905" y="50.34834834834835" type="line" identifier="xv9CFHiFgB"/>
      <point x="63.92992992992993" y="50.34834834834835" type="line" identifier="YajKQV3MHP"/>
      <point x="63.92992992992993" y="163.39939939939939" type="line" identifier="36SchVkwze"/>
      <point x="21.28128128128128" y="163.39939939939939" type="line" identifier="tVui9PiOjA"/>
    </contour>
  </outline>
</glyph>
<glyph name="four" format="2">
  <advance width="206"/>
  <unicode hex="0034"/>
  <outline>
    <contour>
      <point x="128" y="0" type="line"/>
      <point x="170" y="0" type="line"/>
      <point x="170" y="785" type="line"/>
      <point x="204" y="785" type="line"/>
      <point x="204" y="835" type="line"/>
      <point x="170" y="835" type="line"/>
      <point x="170" y="1600" type="line"/>
      <point x="128" y="1600" type="line"/>
      <point x="128" y="835" type="line"/>
      <point x="51" y="835" type="line"/>
      <point x="51" y="912" type="line"/>
      <point x="92" y="1680" type="line"/>
      <point x="51" y="1680" type="line"/>
      <point x="8" y="911" type="line"/>
      <point x="8" y="785" type="line"/>
      <point x="128" y="785" type="line"/>
    </contour>
  </outline>
</glyph>
<glyph name="six" format="2">
  <advance width="213"/>
  <unicode hex="0036"/>
  <outline>
    <contour>
      <point x="17" y="0" type="line" identifier="uiw6aBUf4P"/>
      <point x="195" y="0" type="line" identifier="jtYkxiUX6G"/>
      <point x="195" y="815" type="line" identifier="2G5L37c87I"/>
      <point x="60" y="815" type="line"/>
      <point x="60" y="1397" type="line"/>
      <point x="94" y="1550" type="line"/>
      <point x="152" y="1550" type="line"/>
      <point x="152" y="1322" type="line"/>
      <point x="195" y="1322" type="line" identifier="Wuidbv6mUe"/>
      <point x="195" y="1600" type="line" identifier="oGvEEuxnYv"/>
      <point x="55" y="1600" type="line" identifier="xR3pEHbMJx"/>
      <point x="17" y="1398" type="line" identifier="KnMArb0tv8"/>
    </contour>
    <contour>
      <point x="152" y="773" type="line"/>
      <point x="152" y="50" type="line"/>
      <point x="60" y="50" type="line"/>
      <point x="60" y="773" type="line"/>
    </contour>
  </outline>
</glyph>
<glyph name="seven" format="2">
  <advance width="213.94194194194193"/>
  <unicode hex="0037"/>
  <outline>
    <contour>
      <point x="95.98298298298297" y="0.0" type="line"/>
      <point x="138.63163163163165" y="0.0" type="line" identifier="PiPrv7Kcoy"/>
      <point x="193.6136136136136" y="1443.7527527527527" type="line" identifier="PkvwNC9Tx1"/>
      <point x="193.6136136136136" y="1600.0" type="line" identifier="tgqM27bPOm"/>
      <point x="16.234234234234236" y="1600.0" type="line" identifier="36ml4xRICt"/>
      <point x="16.234234234234236" y="1311.6516516516517" type="line" identifier="aaDZsh5Mah"/>
      <point x="58.88288288288288" y="1311.6516516516517" type="line"/>
      <point x="58.88288288288288" y="1549.6516516516517" type="line"/>
      <point x="150.96496496496496" y="1549.6516516516517" type="line"/>
      <point x="150.96496496496496" y="1457.3213213213214" type="line"/>
    </contour>
  </outline>
</glyph>
<glyph name="eight" format="2">
  <advance width="251.36536536536536"/>
  <unicode hex="0038"/>
  <outline>
    <contour>
      <point x="140.20820820820822" y="780.081081081081" type="line"/>
      <point x="178.2942942942943" y="731.978978978979" type="line"/>
      <point x="178.2942942942943" y="50.34834834834835" type="line"/>
      <point x="73.07107107107107" y="50.34834834834835" type="line"/>
      <point x="73.07107107107107" y="731.978978978979" type="line"/>
      <point x="111.15715715715714" y="780.081081081081" type="line"/>
    </contour>
    <contour>
      <point x="178.3043043043043" y="799.0" type="line"/>
      <point x="178.3043043043043" y="801.0" type="line"/>
      <point x="217.8958958958959" y="852.4094094094094" type="line"/>
      <point x="217.8958958958959" y="1600.0" type="line"/>
      <point x="33.46946946946947" y="1600.0" type="line"/>
      <point x="33.46946946946947" y="852.4094094094094" type="line"/>
      <point x="73.27127127127127" y="801.0" type="line"/>
      <point x="73.27127127127127" y="799.0" type="line"/>
      <point x="30.42242242242242" y="744.5905905905906" type="line"/>
      <point x="30.42242242242242" y="0.0" type="line"/>
      <point x="220.94294294294295" y="0.0" type="line"/>
      <point x="220.94294294294295" y="744.5905905905906" type="line"/>
    </contour>
    <contour>
      <point x="111.15715715715714" y="819.918918918919" type="line"/>
      <point x="76.11811811811812" y="865.021021021021" type="line"/>
      <point x="76.11811811811812" y="1549.6516516516517" type="line"/>
      <point x="175.24724724724726" y="1549.6516516516517" type="line"/>
      <point x="175.24724724724726" y="865.021021021021" type="line"/>
      <point x="140.20820820820822" y="819.918918918919" type="line"/>
    </contour>
  </outline>
</glyph>
<glyph name="B" format="2">
  <advance width="238.91991991991992"/>
  <unicode hex="0042"/>
  <outline>
    <contour>
      <point x="32.646646646646644" y="0.0" type="line" identifier="hvY9r8RmLr"/>
      <point x="211.0730730730731" y="0.0" type="line" identifier="9QFpw7nfq7"/>
      <point x="211.0730730730731" y="752.5435435435436" type="line" identifier="543PerILpr"/>
      <point x="171.991991991992" y="799.0" type="line" identifier="zhomauHW30"/>
      <point x="171.991991991992" y="801.0" type="line" identifier="870ZhtaozS"/>
      <point x="208.02602602602605" y="852.3623623623623" type="line" identifier="eGKH52Jgnk"/>
      <point x="208.02602602602605" y="1600.0" type="line" identifier="FaP204GrdB"/>
      <point x="32.646646646646644" y="1600.0" type="line" identifier="JEev70GAj6"/>
    </contour>
    <contour>
      <point x="75.29529529529529" y="822.021021021021" type="line" identifier="By7dfMihfe"/>
      <point x="75.29529529529529" y="1549.4414414414414" type="line" identifier="1p5hKrurVy"/>
      <point x="165.37737737737737" y="1549.4414414414414" type="line" identifier="Qby8aMtF2X"/>
      <point x="165.37737737737737" y="866.2442442442443" type="line" identifier="9lW01gQyU2"/>
      <point x="133.89589589589588" y="822.021021021021" type="line" identifier="xpxyvIzPoc"/>
    </contour>
    <contour>
      <point x="75.29529529529529" y="50.34834834834835" type="line" identifier="jaMSiLrCua"/>
      <point x="75.29529529529529" y="777.978978978979" type="line" identifier="XSrxNd2axx"/>
      <point x="133.89589589589588" y="777.978978978979" type="line" identifier="VyYlzRh5nq"/>
      <point x="168.42442442442442" y="738.8968968968968" type="line" identifier="lsRGatjQja"/>
      <point x="168.42442442442442" y="50.34834834834835" type="line" identifier="xhlDJ3CjD5"/>
    </contour>
  </outline>
</glyph>
<glyph name="C" format="2">
  <advance width="227.8918918918919"/>
  <unicode hex="0043"/>
  <outline>
    <contour>
      <point x="27.104104104104106" y="0.0" type="line" identifier="7lPhzTnk2Z"/>
      <point x="205.4834834834835" y="0.0" type="line" identifier="qJVLZGnkwh"/>
      <point x="205.4834834834835" y="268.7037037037037" type="line" identifier="nDnDHzAMXL"/>
      <point x="162.83483483483485" y="268.7037037037037" type="line" identifier="QX1V08aTu0"/>
      <point x="162.83483483483485" y="50.34834834834835" type="line" identifier="Y750RHTvDj"/>
      <point x="69.75275275275276" y="50.34834834834835" type="line" identifier="L2LsGnXiZ2"/>
      <point x="69.75275275275276" y="1259.068068068068" type="line" identifier="sUWsr03vF4"/>
      <point x="112.21321321321321" y="1549.6516516516517" type="line" identifier="dbOUe6OhxL"/>
      <point x="161.83483483483485" y="1549.6516516516517" type="line" identifier="5BjRbcud80"/>
      <point x="161.83483483483485" y="1154.3463463463463" type="line" identifier="fNVDqwQo2o"/>
      <point x="204.4834834834835" y="1154.3463463463463" type="line" identifier="wLqQQx7QVN"/>
      <point x="204.4834834834835" y="1600.0" type="line" identifier="9eJelv8BOw"/>
      <point x="76.32632632632632" y="1600.0" type="line" identifier="lfZev3ICaC"/>
      <point x="27.104104104104106" y="1262.3153153153153" type="line" identifier="V1EWIdPahq"/>
    </contour>
  </outline>
</glyph>
<glyph name="M" format="2">
  <advance width="366.92892892892894"/>
  <unicode hex="004D"/>
  <outline>
    <contour>
      <point x="149.8088088088088" y="281.1011011011011" type="line" identifier="0Dn4Xpf57M"/>
      <point x="92.83983983983984" y="1549.6516516516517" type="line"/>
      <point x="75.29529529529529" y="1549.6516516516517" type="line"/>
      <point x="75.29529529529529" y="0.0" type="line"/>
      <point x="32.646646646646644" y="0.0" type="line"/>
      <point x="32.646646646646644" y="1600.0" type="line"/>
      <point x="123.75075075075075" y="1600.0" type="line"/>
      <point x="179.51851851851853" y="327.24524524524526" type="line"/>
      <point x="187.4104104104104" y="327.24524524524526" type="line" identifier="9aKZPM0HPh"/>
      <point x="243.1781781781782" y="1600.0" type="line"/>
      <point x="334.28228228228227" y="1600.0" type="line"/>
      <point x="334.28228228228227" y="0.0" type="line"/>
      <point x="291.6336336336336" y="0.0" type="line"/>
      <point x="291.6336336336336" y="1549.6516516516517" type="line"/>
      <point x="274.08908908908904" y="1549.6516516516517" type="line"/>
      <point x="217.1201201201201" y="281.1011011011011" type="line" identifier="spdoeeCFft"/>
    </contour>
  </outline>
</glyph>
<glyph name="N" format="2">
  <advance width="286.8328328328328"/>
  <unicode hex="004E"/>
  <outline>
    <contour>
      <point x="32.646646646646644" y="0.0" type="line" identifier="CkwYPPvJLv"/>
      <point x="75.29529529529529" y="0.0" type="line" identifier="oHTJsN7drZ"/>
      <point x="75.29529529529529" y="1531.7837837837837" type="line" identifier="wfBbYd10Pm"/>
      <point x="88.31731731731732" y="1531.7837837837837" type="line" identifier="MEnBDHq6zU"/>
      <point x="196.13513513513513" y="17.635635635635637" type="line" identifier="3Nbopwznvn"/>
      <point x="197.83083083083082" y="0.0" type="line"/>
      <point x="254.18618618618618" y="0.0" type="line" identifier="uKfuudIUvA"/>
      <point x="254.18618618618618" y="1600.0" type="line" identifier="XRdLFXiM4t"/>
      <point x="211.53753753753753" y="1600.0" type="line" identifier="MUSJPjCIXg"/>
      <point x="211.53753753753753" y="103.03103103103103" type="line" identifier="VILP20cFmq"/>
      <point x="197.24724724724726" y="85.01201201201202" type="line" identifier="z5b04GDwRN"/>
      <point x="91.04804804804806" y="1600.0" type="line" identifier="LL64NQ6WBE"/>
      <point x="32.646646646646644" y="1600.0" type="line" identifier="dzUaaP1sjt"/>
    </contour>
  </outline>
</glyph>
<glyph name="O" format="2">
  <advance width="236.12012012012013"/>
  <unicode hex="004F"/>
  <outline>
    <contour>
      <point x="208.27327327327328" y="197.6986986986987" type="line" identifier="ob8US3C311"/>
      <point x="208.27327327327328" y="1600.0" type="line" identifier="c9brEFyXXA"/>
      <point x="68.33933933933935" y="1600.0" type="line" identifier="a4Ql951bxG"/>
      <point x="27.846846846846848" y="1395.5255255255254" type="line" identifier="kbL68Qh2zr"/>
      <point x="27.846846846846848" y="0.0" type="line" identifier="U6WibAQAUl"/>
      <point x="168.73373373373374" y="0.0" type="line" identifier="dfgNHTgBfR"/>
    </contour>
    <contour>
      <point x="165.62462462462463" y="202.56656656656656" type="line" identifier="SnrsQD5TLy"/>
      <point x="134.15315315315314" y="50.34834834834835" type="line" identifier="jjd5iRDXWT"/>
      <point x="70.4954954954955" y="50.34834834834835" type="line" identifier="YbQKHpAtYn"/>
      <point x="70.4954954954955" y="1390.1251251251251" type="line" identifier="vdfGLkskOQ"/>
      <point x="102.91991991991992" y="1549.6516516516517" type="line" identifier="qXlVxK5ShE"/>
      <point x="165.62462462462463" y="1549.6516516516517" type="line" identifier="g70r2r6DwY"/>
    </contour>
  </outline>
</glyph>
<glyph name="P" format="2">
  <advance width="232.21421421421422"/>
  <unicode hex="0050"/>
  <outline>
    <contour>
      <point x="32.646646646646644" y="0.0" type="line" identifier="EG08jqU5fb"/>
      <point x="75.29529529529529" y="0.0" type="line" identifier="osRzIFK2Cu"/>
      <point x="75.29529529529529" y="723.1721721721722" type="line" identifier="hIFVovVRwe"/>
      <point x="206.978978978979" y="777.978978978979" type="line" identifier="Tt6D8zYZmU"/>
      <point x="206.978978978979" y="1600.0" type="line" identifier="6xW04auDFu"/>
      <point x="32.646646646646644" y="1600.0" type="line" identifier="eETO5GBD5v"/>
    </contour>
    <contour>
      <point x="75.29529529529529" y="767.2142142142143" type="line" identifier="PIBVN1PGv1"/>
      <point x="75.29529529529529" y="1549.6516516516517" type="line" identifier="IZIZQr2gYJ"/>
      <point x="164.33033033033033" y="1549.6516516516517" type="line" identifier="2c4LCF1E1R"/>
      <point x="164.33033033033033" y="812.1721721721722" type="line" identifier="1WCnzth1GX"/>
    </contour>
  </outline>
</glyph>
<glyph name="R" format="2">
  <advance width="239.87287287287288"/>
  <unicode hex="0052"/>
  <outline>
    <contour>
      <point x="75.29529529529529" y="814.6636636636637" type="line"/>
      <point x="75.29529529529529" y="1549.6516516516517" type="line"/>
      <point x="165.37737737737737" y="1549.6516516516517" type="line"/>
      <point x="165.37737737737737" y="857.6166166166166" type="line"/>
      <point x="134.001001001001" y="814.6636636636637" type="line"/>
    </contour>
    <contour>
      <point x="212.02602602602605" y="0.0" type="line"/>
      <point x="212.02602602602605" y="742.0800800800802" type="line"/>
      <point x="172.94494494494495" y="788.4894894894895" type="line"/>
      <point x="172.94494494494495" y="790.4894894894895" type="line"/>
      <point x="208.02602602602605" y="841.8988988988989" type="line"/>
      <point x="208.02602602602605" y="1600.0" type="line"/>
      <point x="32.646646646646644" y="1600.0" type="line"/>
      <point x="32.646646646646644" y="0.0" type="line"/>
      <point x="75.29529529529529" y="0.0" type="line"/>
      <point x="75.29529529529529" y="764.3153153153153" type="line"/>
      <point x="134.001001001001" y="764.3153153153153" type="line"/>
      <point x="169.37737737737737" y="726.3153153153153" type="line"/>
      <point x="169.37737737737737" y="0.0" type="line"/>
    </contour>
  </outline>
</glyph>
<glyph name="S" format="2">
  <advance width="231.16316316316318"/>
  <unicode hex="0053"/>
  <outline>
    <contour>
      <point x="27.813813813813816" y="0.0" type="line" identifier="09VlJ0BjUX"/>
      <point x="200.8998998998999" y="0.0" type="line" identifier="EagWihqFM8"/>
      <point x="200.8998998998999" y="830.3693693693693" type="line" identifier="KfNuQA7eZe"/>
      <point x="71.21621621621622" y="830.3693693693693" type="line" identifier="At364YZFEy"/>
      <point x="71.21621621621622" y="1552.804804804805" type="line" identifier="BcuLfvaQKC"/>
      <point x="158.25125125125126" y="1552.804804804805" type="line" identifier="3ZUkG35meB"/>
      <point x="158.25125125125126" y="1328.5735735735736" type="line" identifier="DTOJhFIl15"/>
      <point x="200.8998998998999" y="1328.5735735735736" type="line" identifier="9KDcrfQ5Ui"/>
      <point x="200.8998998998999" y="1600.0" type="line" identifier="SaF9ojRFrW"/>
      <point x="28.567567567567565" y="1600.0" type="line" identifier="F4sQEYelA8"/>
      <point x="28.567567567567565" y="785.0880880880882" type="line" identifier="3sQ8t8BZ6b"/>
      <point x="158.25125125125126" y="785.0880880880882" type="line" identifier="yiV6OCBLHg"/>
      <point x="158.25125125125126" y="50.34834834834835" type="line" identifier="9kdl9SYsn8"/>
      <point x="70.35735735735736" y="50.34834834834835" type="line" identifier="yZDWuX8LLe"/>
      <point x="70.35735735735736" y="276.003003003003" type="line" identifier="jYb9001DTm"/>
      <point x="27.813813813813816" y="276.003003003003" type="line" identifier="ho4DrS0rdW"/>
    </contour>
  </outline>
</glyph>
<glyph name="V" format="2">
  <advance width="238.87287287287288"/>
  <unicode hex="0056"/>
  <outline>
    <contour>
      <point x="75.29529529529529" y="1600.0" type="line" smooth="yes"/>
      <point x="75.29529529529529" y="50.34834834834835" type="line"/>
      <point x="126.13413413413413" y="50.34834834834835" type="line" smooth="yes"/>
      <point x="168.37737737737737" y="331.7257257257257" type="line" smooth="yes"/>
      <point x="168.37737737737737" y="1600.0" type="line"/>
      <point x="211.02602602602605" y="1600.0" type="line" smooth="yes"/>
      <point x="211.02602602602605" y="331.7257257257257" type="line" smooth="yes"/>
      <point x="160.3803803803804" y="0.0" type="line" smooth="yes"/>
      <point x="32.646646646646644" y="0.0" type="line" smooth="yes"/>
      <point x="32.646646646646644" y="1600.0" type="line" smooth="yes"/>
    </contour>
  </outline>
</glyph>
<glyph name="X" format="2">
  <advance width="251"/>
  <unicode hex="0058"/>
  <outline>
    <contour>
      <point x="140" y="775" type="line"/>
      <point x="178" y="729" type="line"/>
      <point x="178" y="0" type="line"/>
      <point x="221" y="0" type="line"/>
      <point x="221" y="745" type="line"/>
      <point x="178" y="799" type="line"/>
      <point x="178" y="801" type="line"/>
      <point x="217" y="852" type="line"/>
      <point x="217" y="1600" type="line"/>
      <point x="174" y="1600" type="line"/>
      <point x="174" y="868" type="line"/>
      <point x="140" y="825" type="line"/>
      <point x="111" y="825" type="line"/>
      <point x="77" y="868" type="line"/>
      <point x="77" y="1600" type="line"/>
      <point x="34" y="1600" type="line"/>
      <point x="34" y="852" type="line"/>
      <point x="73" y="801" type="line"/>
      <point x="73" y="799" type="line"/>
      <point x="30" y="745" type="line"/>
      <point x="30" y="0" type="line"/>
      <point x="73" y="0" type="line"/>
      <point x="73" y="729" type="line"/>
      <point x="111" y="775" type="line"/>
    </contour>
  </outline>
</glyph>
<glyph name="Z" format="2">
  <advance width="230.21621621621622"/>
  <unicode hex="005A"/>
  <outline>
    <contour>
      <point x="25.235235235235237" y="0.0" type="line"/>
      <point x="203.61461461461462" y="0.0" type="line" identifier="pzdvPTirLJ"/>
      <point x="203.61461461461462" y="292.6106106106106" type="line" identifier="91SxUS0iwG"/>
      <point x="160.96596596596595" y="292.6106106106106" type="line"/>
      <point x="160.96596596596595" y="50.34834834834835" type="line"/>
      <point x="67.88388388388388" y="50.34834834834835" type="line"/>
      <point x="67.88388388388388" y="268.8378378378378" type="line"/>
      <point x="201.35435435435434" y="1533.5435435435436" type="line" identifier="yyb1NCCI5w"/>
      <point x="201.35435435435434" y="1600.0" type="line" identifier="5FogYRSgkk"/>
      <point x="28.28228228228228" y="1600.0" type="line" identifier="svlFvrau4c"/>
      <point x="28.28228228228228" y="1316.7467467467466" type="line" identifier="LQ9fBsTy9K"/>
      <point x="66.6966966966967" y="1316.7467467467466" type="line"/>
      <point x="66.6966966966967" y="1549.6516516516517" type="line"/>
      <point x="158.28528528528528" y="1549.6516516516517" type="line"/>
      <point x="158.28528528528528" y="1531.6516516516517" type="line"/>
      <point x="25.235235235235237" y="271.8378378378378" type="line" identifier="teVKnpBcVb"/>
    </contour>
  </outline>
</glyph>
<glyph name="C.wide" format="2">
  <advance width="228"/>
  <outline>
    <contour>
      <point x="27" y="0" type="line" identifier="7lPhzTnk2Z"/>
      <point x="205" y="0" type="line" identifier="qJVLZGnkwh"/>
      <point x="205" y="50" type="line" identifier="Y750RHTvDj"/>
      <point x="70" y="50" type="line" identifier="L2LsGnXiZ2"/>
      <point x="70" y="1259" type="line" identifier="sUWsr03vF4"/>
      <point x="112" y="1550" type="line" identifier="dbOUe6OhxL"/>
      <point x="204" y="1550" type="line" identifier="5BjRbcud80"/>
      <point x="204" y="1600" type="line" identifier="9eJelv8BOw"/>
      <point x="76" y="1600" type="line" identifier="lfZev3ICaC"/>
      <point x="27" y="1262" type="line" identifier="V1EWIdPahq"/>
    </contour>
  </outline>
</glyph>
<glyph name="E.wide" format="2">
  <advance width="234"/>
  <outline>
    <contour>
      <point x="37" y="0" type="line" identifier="fZynkQ4XHB"/>
      <point x="203" y="0" type="line" identifier="FAQNpgUPxV"/>
      <point x="203" y="48" type="line" identifier="5cgTYOhATF"/>
      <point x="80" y="48" type="line" identifier="bWs42DaCgU"/>
      <point x="80" y="777" type="line" identifier="VtD2aADJmn"/>
      <point x="193" y="777" type="line" identifier="PpbsFdHAnS"/>
      <point x="193" y="823" type="line" identifier="8WuC5p8Ax5"/>
      <point x="80" y="823" type="line" identifier="m39IWn9ntA"/>
      <point x="80" y="1553" type="line" identifier="gQ21I4SHQg"/>
      <point x="202" y="1553" type="line" identifier="eqNb2VTwYs"/>
      <point x="202" y="1600" type="line" identifier="qYRmo14Il5"/>
      <point x="37" y="1600" type="line" identifier="HmJIcnLWfC"/>
    </contour>
  </outline>
</glyph>
<glyph name="F.wide" format="2">
  <advance width="227.16716716716718"/>
  <outline>
    <contour>
      <point x="32.646646646646644" y="0.0" type="line" identifier="oAgH2tA6DJ"/>
      <point x="75.29529529529529" y="0.0" type="line" identifier="zCZyMcW5ho"/>
      <point x="75.29529529529529" y="747.4984984984985" type="line" identifier="yHYqkMd7LI"/>
      <point x="195.28628628628627" y="747.4984984984985" type="line" identifier="NmB7yyQuio"/>
      <point x="195.28628628628627" y="797.8468468468468" type="line" identifier="wQk2C8zPHh"/>
      <point x="75.29529529529529" y="797.8468468468468" type="line" identifier="4cFHKQfHDt"/>
      <point x="75.29529529529529" y="1549.6516516516517" type="line" identifier="ZvzwyrcwpS"/>
      <point x="201.93193193193193" y="1549.6516516516517" type="line" identifier="4E754ovOIe"/>
      <point x="201.93193193193193" y="1600.0" type="line" identifier="NUrIjqOB7J"/>
      <point x="32.646646646646644" y="1600.0" type="line" identifier="TBAYuCfUFX"/>
    </contour>
  </outline>
</glyph>
<glyph name="G.wide" format="2">
  <advance width="224.39539539539538"/>
  <outline>
    <contour>
      <point x="27.846846846846848" y="0.0" type="line" identifier="7lPhzTnk2Z"/>
      <point x="206.13213213213214" y="0.0" type="line" identifier="qJVLZGnkwh"/>
      <point x="206.13213213213214" y="813.8328328328328" type="line" identifier="uek1NNj7De"/>
      <point x="108.19419419419418" y="813.8328328328328" type="line" identifier="qcvimxjndX"/>
      <point x="108.19419419419418" y="772.943943943944" type="line" identifier="EARaY3Su65"/>
      <point x="163.85985985985985" y="772.943943943944" type="line" identifier="4m6dHLVhZq"/>
      <point x="163.85985985985985" y="50.34834834834835" type="line" identifier="Y750RHTvDj"/>
      <point x="70.4954954954955" y="50.34834834834835" type="line" identifier="L2LsGnXiZ2"/>
      <point x="70.4954954954955" y="1266.9009009009008" type="line" identifier="sUWsr03vF4"/>
      <point x="111.5945945945946" y="1549.6516516516517" type="line" identifier="dbOUe6OhxL"/>
      <point x="205.22622622622623" y="1549.6516516516517" type="line" identifier="5BjRbcud80"/>
      <point x="205.22622622622623" y="1600.0" type="line" identifier="9eJelv8BOw"/>
      <point x="74.24624624624624" y="1600.0" type="line" identifier="lfZev3ICaC"/>
      <point x="27.846846846846848" y="1268.8418418418419" type="line" identifier="V1EWIdPahq"/>
    </contour>
  </outline>
</glyph>
<glyph name="K.alt" format="2">
  <advance width="233"/>
  <outline>
    <contour>
      <point x="77" y="0" type="line" identifier="wmNm7XZsaF"/>
      <point x="77" y="775" type="line" identifier="O22liaP9Qk"/>
      <point x="132" y="775" type="line" identifier="ELFBWIb1vd"/>
      <point x="170" y="746" type="line" identifier="DzXo67YEfw"/>
      <point x="170" y="0" type="line" identifier="aKpYWD78l2"/>
      <point x="213" y="0" type="line" identifier="ChS7KlqGi6"/>
      <point x="213" y="762" type="line" identifier="sWLgkU8Vey"/>
      <point x="171" y="799" type="line" identifier="Of0iQc0wBG"/>
      <point x="171" y="801" type="line" identifier="j4jnmtDJYB"/>
      <point x="209" y="1600" type="line" identifier="dMJ1ywOKQQ"/>
      <point x="168" y="1600" type="line" identifier="08OWjR2YBJ"/>
      <point x="134" y="825" type="line" identifier="g4YLdZEoM3"/>
      <point x="77" y="825" type="line" identifier="uZuki3Isec"/>
      <point x="77" y="1600" type="line" identifier="nRfcNgqJ4H"/>
      <point x="35" y="1600" type="line" identifier="3XJlWt89ad"/>
      <point x="35" y="0" type="line" identifier="wdbO8kCovY"/>
    </contour>
  </outline>
</glyph>
<glyph name="N.wide" format="2">
  <advance width="286.8328328328328"/>
  <outline>
    <contour>
      <point x="32.646646646646644" y="0.0" type="line" identifier="CkwYPPvJLv"/>
      <point x="75.29529529529529" y="0.0" type="line" identifier="oHTJsN7drZ"/>
      <point x="75.29529529529529" y="1531.7837837837837" type="line" identifier="wfBbYd10Pm"/>
      <point x="88.31731731731732" y="1531.7837837837837" type="line" identifier="MEnBDHq6zU"/>
      <point x="196.13513513513513" y="0.0" type="line" identifier="3Nbopwznvn"/>
      <point x="254.18618618618618" y="0.0" type="line" identifier="uKfuudIUvA"/>
      <point x="254.18618618618618" y="1600.0" type="line" identifier="XRdLFXiM4t"/>
      <point x="211.53753753753753" y="1600.0" type="line" identifier="MUSJPjCIXg"/>
      <point x="211.53753753753753" y="70.8978978978979" type="line" identifier="VILP20cFmq"/>
      <point x="196.964964964965" y="70.8978978978979" type="line" identifier="z5b04GDwRN"/>
      <point x="91.04804804804806" y="1600.0" type="line" identifier="LL64NQ6WBE"/>
      <point x="32.646646646646644" y="1600.0" type="line" identifier="dzUaaP1sjt"/>
    </contour>
  </outline>
</glyph>
<glyph name="R.alt" format="2">
  <advance width="250"/>
  <outline>
    <contour>
      <point x="80" y="815" type="line"/>
      <point x="80" y="1550" type="line"/>
      <point x="170" y="1550" type="line"/>
      <point x="170" y="815" type="line"/>
    </contour>
    <contour>
      <point x="223" y="0" type="line"/>
      <point x="173" y="777" type="line"/>
      <point x="213" y="783" type="line"/>
      <point x="213" y="1600" type="line"/>
      <point x="37" y="1600" type="line"/>
      <point x="37" y="0" type="line"/>
      <point x="80" y="0" type="line"/>
      <point x="80" y="764" type="line"/>
      <point x="137" y="764" type="line"/>
      <point x="185" y="0" type="line"/>
    </contour>
  </outline>
</glyph>
<glyph name="S.alt" format="2">
  <advance width="217.32332332332334"/>
  <outline>
    <contour>
      <point x="23.91991991991992" y="0.0" type="line" identifier="09VlJ0BjUX"/>
      <point x="189.26526526526527" y="0.0" type="line" identifier="EagWihqFM8"/>
      <point x="189.26526526526527" y="822.021021021021" type="line" identifier="KfNuQA7eZe"/>
      <point x="59.53453453453454" y="822.021021021021" type="line" identifier="At364YZFEy"/>
      <point x="59.53453453453454" y="1268.833833833834" type="line"/>
      <point x="97.37237237237237" y="1549.6516516516517" type="line"/>
      <point x="146.56956956956958" y="1549.6516516516517" type="line" identifier="3ZUkG35meB"/>
      <point x="146.56956956956958" y="1242.6326326326325" type="line" identifier="DTOJhFIl15"/>
      <point x="189.26526526526527" y="1242.6326326326325" type="line" identifier="9KDcrfQ5Ui"/>
      <point x="189.26526526526527" y="1600.0" type="line" identifier="SaF9ojRFrW"/>
      <point x="68.03603603603602" y="1600.0" type="line"/>
      <point x="21.91991991991992" y="1271.6566566566567" type="line"/>
      <point x="21.91991991991992" y="777.978978978979" type="line" identifier="3sQ8t8BZ6b"/>
      <point x="146.56956956956958" y="777.978978978979" type="line" identifier="yiV6OCBLHg"/>
      <point x="146.56956956956958" y="50.34834834834835" type="line" identifier="9kdl9SYsn8"/>
      <point x="65.29829829829829" y="50.34834834834835" type="line" identifier="yZDWuX8LLe"/>
      <point x="65.29829829829829" y="275.47747747747746" type="line" identifier="jYb9001DTm"/>
      <point x="23.91991991991992" y="275.47747747747746" type="line" identifier="ho4DrS0rdW"/>
    </contour>
  </outline>
</glyph>
<glyph name="Z.wide" format="2">
  <advance width="230.21621621621622"/>
  <outline>
    <contour>
      <point x="25.235235235235237" y="0.0" type="line"/>
      <point x="203.61461461461462" y="0.0" type="line" identifier="pzdvPTirLJ"/>
      <point x="203.61461461461462" y="50.34834834834835" type="line"/>
      <point x="67.88388388388388" y="50.34834834834835" type="line"/>
      <point x="67.88388388388388" y="268.8378378378378" type="line"/>
      <point x="201.35435435435434" y="1448.7587587587586" type="line" identifier="yyb1NCCI5w"/>
      <point x="201.35435435435434" y="1600.0" type="line" identifier="5FogYRSgkk"/>
      <point x="28.28228228228228" y="1600.0" type="line" identifier="svlFvrau4c"/>
      <point x="28.28228228228228" y="1549.6516516516517" type="line"/>
      <point x="158.28528528528528" y="1549.6516516516517" type="line"/>
      <point x="158.28528528528528" y="1446.8668668668668" type="line"/>
      <point x="25.235235235235237" y="271.8378378378378" type="line" identifier="teVKnpBcVb"/>
    </contour>
  </outline>
</glyph>
